<svg version="1.1" viewBox="0.0 0.0 960.0 720.0" fill="none" stroke="none" stroke-linecap="square" stroke-miterlimit="10" xmlns:xlink="http://www.w3.org/1999/xlink" xmlns="http://www.w3.org/2000/svg"><clipPath id="p.0"><path d="m0 0l960.0 0l0 720.0l-960.0 0l0 -720.0z" clip-rule="nonzero"/></clipPath><g clip-path="url(#p.0)"><path fill="#000000" fill-opacity="0.0" d="m0 0l960.0 0l0 720.0l-960.0 0z" fill-rule="evenodd"/><path fill="#000000" d="m248.343 275.3337l407.36328 0l0 311.85104l-407.36328 0z" fill-rule="evenodd"/><path stroke="#000000" stroke-width="1.0" stroke-linejoin="round" stroke-linecap="butt" d="m248.343 275.3337l407.36328 0l0 311.85104l-407.36328 0z" fill-rule="evenodd"/><path fill="#000000" d="m161.80087 429.76123l0 0c0 -160.28189 129.2713 -290.21603 288.73553 -290.21603l0 0c76.57742 0 150.0184 30.576248 204.16684 85.00232c54.148438 54.426056 84.568665 128.24365 84.568665 205.21371l0 0c0 160.28192 -129.2713 290.21606 -288.7355 290.21606l0 0c-159.46423 0 -288.73553 -129.93414 -288.73553 -290.21606zm164.11728 0c0 69.642426 55.793488 126.098755 124.618256 126.098755c68.82474 0 124.618256 -56.45633 124.618256 -126.098755c0 -69.642426 -55.793518 -126.098755 -124.618256 -126.098755l0 0c-68.82477 0 -124.618256 56.45633 -124.618256 126.098755z" fill-rule="evenodd"/><path stroke="#00ff00" stroke-width="3.0" stroke-linejoin="round" stroke-linecap="butt" d="m161.80087 429.76123l0 0c0 -160.28189 129.2713 -290.21603 288.73553 -290.21603l0 0c76.57742 0 150.0184 30.576248 204.16684 85.00232c54.148438 54.426056 84.568665 128.24365 84.568665 205.21371l0 0c0 160.28192 -129.2713 290.21606 -288.7355 290.21606l0 0c-159.46423 0 -288.73553 -129.93414 -288.73553 -290.21606zm164.11728 0c0 69.642426 55.793488 126.098755 124.618256 126.098755c68.82474 0 124.618256 -56.45633 124.618256 -126.098755c0 -69.642426 -55.793518 -126.098755 -124.618256 -126.098755l0 0c-68.82477 0 -124.618256 56.45633 -124.618256 126.098755z" fill-rule="evenodd"/><path fill="#000000" fill-opacity="0.0" d="m236.76448 429.76785l0 0c0 -118.34897 95.70613 -214.28978 213.76561 -214.28978l0 0c56.694153 0 111.066284 22.576889 151.15509 62.764023c40.088806 40.187134 62.610474 94.692566 62.610474 151.52576l0 0c0 118.34897 -95.706116 214.28983 -213.76556 214.28983l0 0c-118.05948 0 -213.76561 -95.94086 -213.76561 -214.28983zm163.72734 0c0 27.924866 22.402893 50.56244 50.03827 50.56244c27.635345 0 50.03824 -22.637573 50.03824 -50.56244c0 -27.924866 -22.402893 -50.56244 -50.03824 -50.56244l0 0c-27.635376 0 -50.03827 22.637573 -50.03827 50.56244z" fill-rule="evenodd"/><path stroke="#00ff00" stroke-width="1.0" stroke-linejoin="round" stroke-linecap="butt" d="m236.76448 429.76785l0 0c0 -118.34897 95.70613 -214.28978 213.76561 -214.28978l0 0c56.694153 0 111.066284 22.576889 151.15509 62.764023c40.088806 40.187134 62.610474 94.692566 62.610474 151.52576l0 0c0 118.34897 -95.706116 214.28983 -213.76556 214.28983l0 0c-118.05948 0 -213.76561 -95.94086 -213.76561 -214.28983zm163.72734 0c0 27.924866 22.402893 50.56244 50.03827 50.56244c27.635345 0 50.03824 -22.637573 50.03824 -50.56244c0 -27.924866 -22.402893 -50.56244 -50.03824 -50.56244l0 0c-27.635376 0 -50.03827 22.637573 -50.03827 50.56244z" fill-rule="evenodd"/><path fill="#000000" fill-opacity="0.0" d="m438.59323 429.7934l0 0c0 -7.0130615 5.348053 -12.698273 11.945221 -12.698273l0 0c3.1680908 0 6.206421 1.3378296 8.446564 3.7192383c2.2401733 2.3813782 3.4986877 5.6112366 3.4986877 8.979034l0 0c0 7.013092 -5.348053 12.698303 -11.945251 12.698303l0 0c-6.597168 0 -11.945221 -5.685211 -11.945221 -12.698303z" fill-rule="evenodd"/><path stroke="#00ff00" stroke-width="1.0" stroke-linejoin="round" stroke-linecap="butt" d="m438.59323 429.7934l0 0c0 -7.0130615 5.348053 -12.698273 11.945221 -12.698273l0 0c3.1680908 0 6.206421 1.3378296 8.446564 3.7192383c2.2401733 2.3813782 3.4986877 5.6112366 3.4986877 8.979034l0 0c0 7.013092 -5.348053 12.698303 -11.945251 12.698303l0 0c-6.597168 0 -11.945221 -5.685211 -11.945221 -12.698303z" fill-rule="evenodd"/><path fill="#000000" fill-opacity="0.0" d="m462.4837 429.7934l276.7874 -0.03149414" fill-rule="evenodd"/><path stroke="#00ff00" stroke-width="12.0" stroke-linejoin="round" stroke-linecap="butt" d="m462.4837 429.7934l276.7874 -0.03149414" fill-rule="evenodd"/><path fill="#000000" fill-opacity="0.0" d="m663.58795 25.236221l-338.48822 660.59845" fill-rule="evenodd"/><path stroke="#00ff00" stroke-width="12.0" stroke-linejoin="round" stroke-linecap="butt" d="m663.58795 25.236221l-338.48822 660.59845" fill-rule="evenodd"/><path fill="#000000" fill-opacity="0.0" d="m662.10236 34.144356l126.20471 668.063" fill-rule="evenodd"/><path stroke="#00ff00" stroke-width="12.0" stroke-linejoin="round" stroke-linecap="butt" d="m662.10236 34.144356l126.20471 668.063" fill-rule="evenodd"/></g></svg>