<svg version="1.1" viewBox="0.0 0.0 960.0 720.0" fill="none" stroke="none" stroke-linecap="square" stroke-miterlimit="10" xmlns:xlink="http://www.w3.org/1999/xlink" xmlns="http://www.w3.org/2000/svg"><clipPath id="p.0"><path d="m0 0l960.0 0l0 720.0l-960.0 0l0 -720.0z" clip-rule="nonzero"/></clipPath><g clip-path="url(#p.0)"><path fill="#000000" fill-opacity="0.0" d="m0 0l960.0 0l0 720.0l-960.0 0z" fill-rule="evenodd"/><path fill="#000000" fill-opacity="0.0" d="m97.98163 37.874016l1019.87396 0l0 665.7953l-1019.87396 0z" fill-rule="evenodd"/><path fill="#000000" d="m131.51288 651.13965q-6.9375 0 -12.265625 -3.203125q-5.328125 -3.203125 -5.328125 -11.734375q0 -1.0625 0.796875 -5.328125q0.796875 -4.265625 4.53125 -23.46875l3.203125 0q9.0625 2.671875 14.390625 3.734375q5.34375 1.0625 12.8125 1.0625q11.734375 0 20.0 -5.328125q8.265625 -5.328125 12.796875 -22.40625q4.53125 -17.0625 4.53125 -52.796875l0 -294.92188l-42.671875 -21.34375l0 -8.53125l133.34375 0l0 8.53125l-42.671875 21.34375l0 194.12502q0 59.734375 -9.609375 107.46875q-9.59375 47.734375 -32.53125 73.328125q-15.453125 17.0625 -25.0625 25.59375q-9.59375 8.546875 -17.59375 11.203125q-8.0 2.671875 -18.671875 2.671875zm316.80002 -86.9375q-35.203125 0 -61.609375 -16.53125q-26.390625 -16.53125 -41.0625 -44.796875q-14.65625 -28.265625 -14.65625 -64.0q0 -35.734375 14.65625 -64.0q14.671875 -28.265625 41.0625 -44.796875q26.40625 -16.53125 61.609375 -16.53125q35.203125 0 61.59375 16.53125q26.40622 16.53125 41.06247 44.796875q14.671875 28.265625 14.671875 64.0q0 35.734375 -14.671875 64.0q-14.65625 28.265625 -41.06247 44.796875q-26.390625 16.53125 -61.59375 16.53125zm7.46875 -22.921875q21.328125 0 35.1875 -13.328125q13.875 -13.34375 20.265625 -34.40625q6.4062195 -21.078125 6.4062195 -44.0q0 -28.265625 -7.7343445 -54.390625q-7.734375 -26.140625 -24.53125 -42.671875q-16.796875 -16.546875 -43.46875 -16.546875q-21.859375 0 -35.734375 13.34375q-13.859375 13.328125 -20.53125 34.125q-6.65625 20.796875 -6.65625 44.265625q0 28.265625 8.0 54.40625q8.0 26.125 25.0625 42.671875q17.0625 16.53125 43.734375 16.53125zm188.79922 22.921875l0 -344.53125l-32.0 -27.734375l0 -3.71875l71.46875 -29.34375l3.1875 0l0 187.73439l2.140625 0q20.265625 -17.0625 39.1875 -25.0625q18.9375 -8.0 40.8125 -8.0q27.203125 0 48.0 13.875q20.796875 13.859375 32.796875 39.1875q12.0 25.328125 12.0 60.53125q0 43.734375 -16.53125 74.40625q-16.53125 30.65625 -44.796875 46.65625q-28.265625 16.0 -63.46875 16.0q-21.875 0 -40.8125 -4.0q-18.921875 -4.0 -35.453125 -9.859375l-13.34375 13.859375l-3.1875 0zm95.46875 -213.85938q-12.8125 0 -26.40625 4.0q-13.59375 4.0 -26.40625 12.0l0 150.39062q14.9375 11.734375 30.140625 16.8125q15.203125 5.0625 33.859375 5.0625q18.671875 0 34.140625 -9.859375q15.46875 -9.875 24.796875 -31.734375q9.328125 -21.875 9.328125 -57.609375q0 -46.390625 -23.203125 -67.71875q-23.1875 -21.34375 -56.25 -21.34375z" fill-rule="nonzero"/><path fill="#000000" d="m334.32474 352.72977l222.70065 0l0 172.48764l-222.70065 0z" fill-rule="evenodd"/><path stroke="#000000" stroke-width="1.0" stroke-linejoin="round" stroke-linecap="butt" d="m334.32474 352.72977l222.70065 0l0 172.48764l-222.70065 0z" fill-rule="evenodd"/><path fill="#000000" d="m287.01318 438.14502l0 0c0 -88.65335 70.67108 -160.52109 157.84827 -160.52109l0 0c41.863953 0 82.013306 16.911987 111.61554 47.015533c29.602295 30.103546 46.232727 70.93274 46.232727 113.505554l0 0c0 88.65338 -70.67108 160.52112 -157.84827 160.52112l0 0c-87.177185 0 -157.84827 -71.86774 -157.84827 -160.52112zm89.72095 0c0 39.101837 30.501648 70.80014 68.12732 70.80014c37.62567 0 68.12732 -31.698303 68.12732 -70.80014c0 -39.101837 -30.501648 -70.80014 -68.12732 -70.80014l0 0c-37.62567 0 -68.12732 31.698303 -68.12732 70.80014z" fill-rule="evenodd"/><path stroke="#00ff00" stroke-width="3.0" stroke-linejoin="round" stroke-linecap="butt" d="m287.01318 438.14502l0 0c0 -88.65335 70.67108 -160.52109 157.84827 -160.52109l0 0c41.863953 0 82.013306 16.911987 111.61554 47.015533c29.602295 30.103546 46.232727 70.93274 46.232727 113.505554l0 0c0 88.65338 -70.67108 160.52112 -157.84827 160.52112l0 0c-87.177185 0 -157.84827 -71.86774 -157.84827 -160.52112zm89.72095 0c0 39.101837 30.501648 70.80014 68.12732 70.80014c37.62567 0 68.12732 -31.698303 68.12732 -70.80014c0 -39.101837 -30.501648 -70.80014 -68.12732 -70.80014l0 0c-37.62567 0 -68.12732 31.698303 -68.12732 70.80014z" fill-rule="evenodd"/><path fill="#000000" fill-opacity="0.0" d="m327.9949 438.14868l0 0c0 -65.45987 52.32138 -118.525604 116.8631 -118.525604l0 0c30.994019 0 60.718597 12.487488 82.634674 34.715363c21.916077 22.227844 34.228394 52.375305 34.228394 83.81024l0 0c0 65.4599 -52.32138 118.525635 -116.86307 118.525635l0 0c-64.54172 0 -116.8631 -53.065735 -116.8631 -118.525635zm89.50778 0c0 16.026123 12.2473755 29.017822 27.355316 29.017822c15.10791 0 27.355286 -12.991699 27.355286 -29.017822c0 -16.026093 -12.2473755 -29.017822 -27.355286 -29.017822l0 0c-15.107941 0 -27.355316 12.99173 -27.355316 29.017822z" fill-rule="evenodd"/><path stroke="#00ff00" stroke-width="1.0" stroke-linejoin="round" stroke-linecap="butt" d="m327.9949 438.14868l0 0c0 -65.45987 52.32138 -118.525604 116.8631 -118.525604l0 0c30.994019 0 60.718597 12.487488 82.634674 34.715363c21.916077 22.227844 34.228394 52.375305 34.228394 83.81024l0 0c0 65.4599 -52.32138 118.525635 -116.86307 118.525635l0 0c-64.54172 0 -116.8631 -53.065735 -116.8631 -118.525635zm89.50778 0c0 16.026123 12.2473755 29.017822 27.355316 29.017822c15.10791 0 27.355286 -12.991699 27.355286 -29.017822c0 -16.026093 -12.2473755 -29.017822 -27.355286 -29.017822l0 0c-15.107941 0 -27.355316 12.99173 -27.355316 29.017822z" fill-rule="evenodd"/><path fill="#000000" fill-opacity="0.0" d="m438.33224 438.1628l0 0c0 -3.8789673 2.9237366 -7.023529 6.5303345 -7.023529l0 0c1.7319336 0 3.3929443 0.73999023 4.6176147 2.0571594c1.2246704 1.3171692 1.9126892 3.1036377 1.9126892 4.9663696l0 0c0 3.8789978 -2.923706 7.0235596 -6.530304 7.0235596l0 0c-3.606598 0 -6.5303345 -3.1445618 -6.5303345 -7.0235596z" fill-rule="evenodd"/><path stroke="#00ff00" stroke-width="1.0" stroke-linejoin="round" stroke-linecap="butt" d="m438.33224 438.1628l0 0c0 -3.8789673 2.9237366 -7.023529 6.5303345 -7.023529l0 0c1.7319336 0 3.3929443 0.73999023 4.6176147 2.0571594c1.2246704 1.3171692 1.9126892 3.1036377 1.9126892 4.9663696l0 0c0 3.8789978 -2.923706 7.0235596 -6.530304 7.0235596l0 0c-3.606598 0 -6.5303345 -3.1445618 -6.5303345 -7.0235596z" fill-rule="evenodd"/><path fill="#000000" fill-opacity="0.0" d="m321.44595 539.4391l114.50601 -115.848724l27.280518 27.564087l-114.50601 115.848724z" fill-rule="evenodd"/><path fill="#00ff00" d="m344.88763 550.37537l-4.9596252 -11.274658l1.1533203 -1.1668701l11.352264 4.807068l-1.2192078 1.2335205l-3.3738403 -1.5209961l-3.3720703 3.411621l1.5614929 3.3545532l-1.142334 1.1557617zm-0.97998047 -5.6989136l2.7349854 -2.7670288l-3.077118 -1.3989258q-1.4066772 -0.6439209 -2.2419434 -1.1102295q0.6156616 0.9329834 1.1105042 1.9882202l1.4735718 3.2879639zm11.493256 -0.4033203l-8.079071 -8.163086l0.9006653 -0.9112549l0.75845337 0.7663574q-0.13214111 -0.7776489 0.04345703 -1.3998413q0.18655396 -0.6333008 0.75772095 -1.2111206q0.7469177 -0.75567627 1.7027893 -0.9448242q0.9558716 -0.18914795 1.9449463 0.23272705q0.9890747 0.39959717 1.8244629 1.2437134q0.90133667 0.91070557 1.2862854 1.9660034q0.39593506 1.0441284 0.16555786 2.0551758q-0.21939087 0.99993896 -0.90042114 1.6889038q-0.4942627 0.50006104 -1.0985413 0.68914795q-0.5932617 0.17791748 -1.1646729 0.11138916l2.8469238 2.8765259l-0.9885559 1.0001831zm-4.243561 -6.086731q1.1321716 1.1439209 2.1211243 1.2324829q0.99993896 0.07745361 1.6479797 -0.57818604q0.6590576 -0.66674805 0.57077026 -1.7109985q-0.08828735 -1.0443115 -1.253418 -2.2215576q-1.1211853 -1.1328125 -2.1321106 -1.2213745q-1.0219116 -0.09967041 -1.6589661 0.54486084q-0.62609863 0.63342285 -0.52682495 1.7332153q0.11029053 1.0886841 1.2314453 2.2215576zm10.498901 -0.2420044l-8.079071 -8.163086l0.9006958 -0.91119385l0.75845337 0.7662964q-0.13214111 -0.7776489 0.043426514 -1.3997803q0.18658447 -0.6333008 0.75775146 -1.2111816q0.7468872 -0.75567627 1.7027893 -0.9448242q0.9558716 -0.18914795 1.9449463 0.23272705q0.9890442 0.3996582 1.8244324 1.2437134q0.90133667 0.91070557 1.2863159 1.9660034q0.39593506 1.0441895 0.16555786 2.0551758q-0.21942139 0.99993896 -0.90042114 1.6889038q-0.4942627 0.5001221 -1.0985413 0.68914795q-0.59329224 0.17791748 -1.1646729 0.111450195l2.8468933 2.8764648l-0.9885559 1.0001831zm-4.2435303 -6.086731q1.1321716 1.1439209 2.1211243 1.232544q0.99993896 0.07745361 1.6479797 -0.57818604q0.6590271 -0.6668091 0.57077026 -1.7110596q-0.08828735 -1.0442505 -1.253418 -2.2214966q-1.1211853 -1.1328735 -2.1321106 -1.2214355q-1.0219116 -0.09967041 -1.6589966 0.54486084q-0.6260681 0.63342285 -0.52679443 1.7332153q0.11026001 1.0887451 1.2314453 2.2215576zm8.234589 -2.4854126l-8.057098 -8.140869l0.9885559 -1.0001221l8.057098 8.140808l-0.9885559 1.0001831zm-4.404114 -9.547302l-1.1321716 -1.1439209l0.9885559 -1.0001831l1.1321716 1.1439819l-0.9885559 1.0001221zm6.9249268 6.996887l-5.836731 -5.897339l0.9885559 -1.0001831l5.836731 5.8974l-0.9885559 1.0001221zm4.1558533 -8.538879l1.1094971 -0.8557129q0.83551025 1.1773071 0.7480469 2.4216309q-0.07647705 1.2331543 -1.032074 2.1999512q-1.1972656 1.2113037 -2.713623 1.1673584q-1.5163574 -0.066223145 -2.9782715 -1.543335q-0.9453125 -0.95513916 -1.3412476 -1.9771118q-0.39593506 -1.0441895 -0.1105957 -2.0441284q0.29629517 -1.0110474 1.0432129 -1.7667236q0.9555969 -0.9667969 2.0433655 -1.0892944q1.0767517 -0.13366699 2.1318665 0.59924316l-0.8127136 1.111206q-0.7253418 -0.44415283 -1.3736267 -0.38842773q-0.63726807 0.0446167 -1.1315613 0.54467773q-0.7469177 0.75567627 -0.680603 1.777771q0.06628418 0.9998169 1.2314148 2.177063q1.1761475 1.1883545 2.1651 1.2769775q0.9779358 0.07745361 1.7028809 -0.65600586q0.5821533 -0.58898926 0.61486816 -1.333313q0.032684326 -0.7665405 -0.6159363 -1.6218262zm7.041748 -4.257019q-0.076538086 1.0332031 -0.38394165 1.7443237q-0.3183899 0.7000122 -0.9005432 1.2889404q-0.96658325 0.9779663 -1.9555054 1.0227051q-0.9888916 0.044677734 -1.7143555 -0.68829346q-0.42868042 -0.4331665 -0.58270264 -0.9885864q-0.16503906 -0.5665283 -0.0663147 -1.0886841q0.09869385 -0.5444336 0.3841858 -1.055542q0.21963501 -0.37780762 0.7358093 -1.0333862q1.0543518 -1.3556824 1.4276733 -2.1334534q-0.20883179 -0.21102905 -0.26379395 -0.26654053q-0.6045532 -0.61083984 -1.1209717 -0.57736206q-0.7251892 0.044647217 -1.4721069 0.8003235q-0.6919861 0.70010376 -0.7796936 1.3000183q-0.087677 0.5777588 0.37408447 1.3552856l-1.0984802 0.8446045q-0.48373413 -0.755249 -0.5718994 -1.4440308q-0.077178955 -0.69989014 0.29614258 -1.4776611q0.3623352 -0.7888794 1.1092224 -1.5445557q0.7469177 -0.75564575 1.3841248 -1.0446777q0.64816284 -0.3001709 1.1316528 -0.25585938q0.48349 0.044281006 0.97805786 0.3663025q0.30773926 0.19989014 0.96725464 0.866272l1.3190308 1.3327332q1.3849792 1.399353 1.8026428 1.7103271q0.42861938 0.2998047 0.9561157 0.4552002l-1.0325012 1.0446167q-0.46154785 -0.15539551 -0.92318726 -0.53302zm-2.286255 -2.154541q-0.3183899 0.7666626 -1.2409058 2.0111694q-0.52719116 0.71118164 -0.66989136 1.0778198q-0.1427002 0.36669922 -0.06567383 0.73327637q0.077056885 0.34436035 0.3298645 0.5997925q0.39572144 0.3998413 0.9560852 0.366333q0.5713501 -0.0446167 1.1425171 -0.62249756q0.571167 -0.5778198 0.7687073 -1.2666626q0.19754028 -0.7110596 -0.033447266 -1.3664551q-0.16500854 -0.49987793 -0.8245239 -1.1662598l-0.36273193 -0.3665161zm6.7291565 -2.6738281l1.0221558 0.74401855q-0.32946777 0.5111389 -0.6589966 0.84451294q-0.538208 0.54452515 -0.9996338 0.6779785q-0.47244263 0.12234497 -0.8680725 -0.033050537q-0.4066162 -0.16653442 -1.2969666 -1.0661316l-3.352539 -3.3873901l-0.72494507 0.73342896l-0.7694397 -0.7774353l0.72494507 -0.73342896l-1.4509277 -1.4660339l0.394989 -1.599884l2.0444946 2.0657654l0.9885559 -1.0001526l0.7694397 0.7774353l-0.9885559 1.0001526l3.4075012 3.4429321q0.42868042 0.433136 0.5935364 0.51083374q0.17584229 0.06661987 0.3735962 0.022125244q0.18676758 -0.055603027 0.40646362 -0.27786255q0.1647644 -0.16668701 0.3843994 -0.47781372zm-5.0625 -7.08078l-1.1321716 -1.1439514l0.9885559 -1.0001526l1.1321716 1.1439514l-0.9885559 1.0001526zm6.9249268 6.996887l-5.836731 -5.8973694l0.9885864 -1.0001526l5.8367004 5.8973694l-0.9885559 1.0001526zm-0.7984619 -5.104553q-1.6158142 -1.6326294 -1.4955444 -3.3323975q0.109375 -1.4220581 1.185791 -2.5111084q1.2082214 -1.2223816 2.7575378 -1.1895447q1.5493164 0.010650635 2.945282 1.4211426q1.1211853 1.132843 1.4291992 2.1325989q0.30801392 0.99975586 0.022705078 2.0219116q-0.28533936 0.99993896 -1.0541992 1.777832q-1.2192383 1.2335205 -2.7575378 1.2117615q-1.5493164 -0.03286743 -3.0332336 -1.532196zm1.0215149 -1.0334778q1.1211853 1.1328125 2.1650696 1.2102661q1.0548401 0.066345215 1.7907715 -0.67819214q0.7359314 -0.7445679 0.6586304 -1.7999573q-0.0663147 -1.0664673 -1.220459 -2.2326355q-1.0772095 -1.0884094 -2.13208 -1.1547546q-1.0438843 -0.07745361 -1.7798157 0.66711426q-0.7359009 0.74453735 -0.6695862 1.8110352q0.06628418 1.044281 1.1874695 2.177124zm8.531158 -2.7188416l-5.8367004 -5.8973694l0.88967896 -0.9001465l0.82440186 0.8329773q-0.31921387 -1.6107788 0.8999939 -2.8442993q0.5272217 -0.53341675 1.1534424 -0.78912354q0.6262207 -0.2557068 1.1536865 -0.16699219q0.5274353 0.0887146 1.0440063 0.4329834q0.3297119 0.22207642 1.0112305 0.91067505l3.5943604 3.6317139l-0.9885559 1.0001526l-3.550415 -3.5873108q-0.6045532 -0.61083984 -1.0221558 -0.78845215q-0.41760254 -0.19985962 -0.89004517 -0.07751465q-0.4614563 0.11123657 -0.85687256 0.5112915q-0.63708496 0.64453125 -0.6917114 1.5222168q-0.054626465 0.85543823 1.0665588 1.9882812l3.1876526 3.2207947l-0.9885559 1.0001221zm11.351929 -11.485016l-7.111786 -7.1856995l-2.6581116 2.68927l-0.9453125 -0.95513916l6.3816833 -6.4565125l0.9453125 0.95513916l-2.658142 2.6893005l7.111786 7.1856995l-1.0654297 1.0779419zm4.267273 -4.317322l-5.836731 -5.8973694l0.8897095 -0.9001465l0.8793335 0.88848877q-0.2750244 -0.96643066 -0.1873169 -1.4552612q0.08773804 -0.48886108 0.4392395 -0.8444519q0.4942627 -0.50009155 1.3292847 -0.7003174l0.57180786 1.2663269q-0.57128906 0.15570068 -0.93377686 0.5224304q-0.31854248 0.32226562 -0.38430786 0.7888794q-0.06576538 0.44439697 0.17614746 0.9109192q0.362854 0.6997986 0.9894104 1.3328552l3.0557556 3.0875244l-0.9885559 1.0001221zm6.831482 -8.378571q-0.076538086 1.0332031 -0.38394165 1.7442932q-0.3184204 0.7000122 -0.90057373 1.288971q-0.96658325 0.9779358 -1.9554749 1.0226746q-0.9888916 0.044708252 -1.7143555 -0.68829346q-0.42868042 -0.433136 -0.58273315 -0.9885559q-0.16500854 -0.5665283 -0.0663147 -1.0887146q0.09869385 -0.5444031 0.3842163 -1.0555115q0.21960449 -0.37780762 0.7358093 -1.0334167q1.0543518 -1.3556519 1.4276733 -2.1334229q-0.2088623 -0.21102905 -0.26382446 -0.26657104q-0.6045532 -0.61083984 -1.1209717 -0.57736206q-0.7251892 0.044677734 -1.4721069 0.8003235q-0.6919861 0.70010376 -0.7796631 1.3000488q-0.08770752 0.5777283 0.37408447 1.3552551l-1.0985107 0.844635q-0.48373413 -0.75527954 -0.5718689 -1.4440613q-0.077178955 -0.6998596 0.29614258 -1.4776306q0.3623047 -0.7888794 1.1092224 -1.5445557q0.7469177 -0.75567627 1.3840942 -1.0447083q0.64819336 -0.30014038 1.1316833 -0.25585938q0.48349 0.044281006 0.97805786 0.366333q0.30773926 0.19985962 0.96725464 0.86624146l1.3190308 1.3327332q1.3849792 1.3993835 1.8026123 1.7103271q0.4286499 0.2998352 0.9561157 0.4552002l-1.0324707 1.0446167q-0.46154785 -0.15539551 -0.92318726 -0.5329895zm-2.286255 -2.1545715q-0.3183899 0.7666626 -1.2409363 2.0112q-0.52716064 0.7111511 -0.66986084 1.0778198q-0.14273071 0.3666687 -0.06567383 0.73324585q0.07702637 0.34436035 0.3298645 0.599823q0.39569092 0.3998108 0.9560852 0.3663025q0.5713501 -0.04458618 1.1425171 -0.62246704q0.571167 -0.57785034 0.7687073 -1.2666931q0.19750977 -0.7110596 -0.033477783 -1.3664551q-0.16497803 -0.49987793 -0.8244934 -1.1662598l-0.36273193 -0.3665161zm7.123657 -5.606842l1.1094666 -0.8557739q0.83551025 1.1773682 0.7480469 2.4216614q-0.07644653 1.2331543 -1.032074 2.1999817q-1.1972351 1.2112732 -2.7135925 1.1672974q-1.5163574 -0.06619263 -2.978302 -1.543335q-0.945282 -0.95510864 -1.341217 -1.9770813q-0.39596558 -1.0441589 -0.11062622 -2.044098q0.29632568 -1.0110474 1.0432129 -1.7667236q0.95562744 -0.9667969 2.0433655 -1.0893555q1.0767822 -0.13360596 2.131897 0.5993042l-0.8127136 1.1111755q-0.7253723 -0.44415283 -1.3736267 -0.38842773q-0.6372986 0.044647217 -1.1315613 0.54470825q-0.7469177 0.75567627 -0.68063354 1.77771q0.06628418 0.9998474 1.2314453 2.1770935q1.176117 1.188385 2.1650696 1.276947q0.9779663 0.07748413 1.7029114 -0.65597534q0.5821533 -0.58895874 0.61483765 -1.333313q0.032684326 -0.76657104 -0.61590576 -1.6217957zm3.9667664 0.3209839l-8.057098 -8.140839l0.9885559 -1.0001526l4.594635 4.642395l-0.03466797 -4.7659607l1.2851257 -1.3001709l-0.064331055 4.4437866l6.1207275 1.2313232l-1.2192383 1.2335205l-4.9119873 -1.0761414l-0.032470703 1.3887024l2.3193054 2.3433838l-0.9885559 1.0001526zm7.7313538 -11.622803l1.142395 -0.9113159q0.6596985 1.1551819 0.4953003 2.3217163q-0.15341187 1.155426 -1.1639404 2.1777954q-1.2851257 1.3002014 -2.8234558 1.2562256q-1.5383301 -0.04397583 -2.9562683 -1.4766846q-1.4729309 -1.4882202 -1.5284424 -3.0768738q-0.055511475 -1.588623 1.15271 -2.8110352q1.1643066 -1.177948 2.7026367 -1.1117554q1.5383301 0.04397583 2.9782715 1.4989014q0.08795166 0.08883667 0.26382446 0.26654053l-4.34964 4.4006653q1.0221863 0.92178345 2.0221252 0.95480347q0.99990845 0.010803223 1.724823 -0.72262573q0.54922485 -0.55563354 0.64785767 -1.2333679q0.09866333 -0.67770386 -0.30819702 -1.5329895zm-4.845093 1.6567383l3.2512512 -3.2893677q-0.80236816 -0.6774292 -1.4726562 -0.7327881q-1.0438843 -0.09967041 -1.790802 0.65600586q-0.68099976 0.68899536 -0.6916504 1.6333008q-0.010650635 0.9220886 0.7038574 1.7328491zm8.981903 -2.0412598l-5.836731 -5.8974l0.8897095 -0.90011597l0.879364 0.88848877q-0.27505493 -0.96643066 -0.1873169 -1.4552917q0.08770752 -0.48883057 0.43920898 -0.8444519q0.4942627 -0.50006104 1.3292847 -0.70028687l0.5718384 1.2662964q-0.5713196 0.15570068 -0.9338074 0.5224304q-0.31851196 0.32226562 -0.38427734 0.7888794q-0.06576538 0.44439697 0.17611694 0.9109497q0.362854 0.69976807 0.9894104 1.3328247l3.0557556 3.0875244l-0.9885559 1.0001526z" fill-rule="nonzero"/></g></svg>